<svg width="280" height="180" viewBox="0 0 280 180" fill="none" xmlns="http://www.w3.org/2000/svg">
<g clip-path="url(#clip0_4_2)">
<g clip-path="url(#clip1_4_2)">
<path d="M142.25 0H148L152.25 0.75L155.75 2L159.25 4L162.25 6.75L164.25 9.25L166.25 13.5L167 16.75L167.25 20L166.75 25.25L165.5 29.5L164 33.25L162 36.75L161.75 37.5L165 38L171 39.75L174.75 41.5L176 41.75L176.5 40.75L179.25 38.5L182 36.75L185 35.25L191.25 33L192.5 32.75L193.25 34.75L194.75 39L194.5 40L189.5 41.75L185.25 43.75L182.5 45.75H182L182.75 47L183.75 47.75V48.25H184.25L186.75 51.5L188.75 55.25L190.25 59.5L190.75 62L191 64.5V68.75L190.5 72.5L189.5 76.25L188.25 79.25L186.75 82.25L184.5 85.25L182.25 87.75L179.75 89.75L176.25 91.75L172.5 93L170 93.5H164L158.75 92.25L154 90.25L150 88L146 84.75L143.75 82.25L141.5 78.75L140 75.5L139 71.75L138.5 66.75L139 61.25L140 57L141.75 52.25L144.5 47L146.5 44L148.75 41L151.25 38.25L153.75 35L155.75 31.75L157.75 27.5L159 23L159.25 21.75V17.75L158.5 14.75L157 12.25L155.25 10.5L152 8.75L148 7.75H142.5L140.5 8.5L139 10L138.5 11.5V13.5L139.5 16.75L141 19.75L143.75 23.75L146.5 27L148.75 29.5L150.5 31.25L150 32.5L147.75 35.25L146 37.5L144.25 36L142 33.5L139.75 30.75L136.5 26.75L134.5 24.25L131.5 21L130 19.25L126.5 16.5L123 14.25L119 12.5L114.25 11.25L110.25 10.75H105.25L101.75 11.5L100.25 12.5L99.75 13.75L100.75 16.25L102.5 18.5L104.75 21L107.5 23.5L112.25 27L116.5 29.75L120.25 32L125.5 35L134.25 39.5L139.5 42V43L137.5 46.25L135 50.75L132.75 55.75L131.25 60.5L130.75 63.25L130.5 68.25L131 72L132.25 76.25L134.25 80.25L136.75 83.75L139 86.25L140.75 88.25L144.25 91.25L147 93.5L146.75 94.5L143.75 98.5L143 99.75L142 99.25L139 97L136 94.25L132.25 90.5L129.5 87L127 83L125 79L123.5 74.25L122.75 70V63.75L123.5 59L125 54L127 49.5L128.75 46.25L129 45.25L126.75 44.5L121.25 41.5L115.5 38.25L110 34.75L105.75 31.75L102.25 29L99 26L96.5 23.5L94.25 20.5L92.5 16.75L92 14.75V12L93 9.25L94.5 7.25L96.25 5.75L99.75 4L102.75 3.25L105.25 3H109.5L114.75 3.5L120.5 4.75L125.25 6.5L129.25 8.5L131.25 9.75L131.75 7.5L133.25 4.75L135.25 2.75L137.75 1.25L140.75 0.25L142.25 0ZM155.75 44.25V44.75H155.25L152.75 48L150.25 52L148.25 56L146.75 60.25L146 65.5L146.25 69.5L147 72.5L149 76.5L151.5 79.5L154.75 82L157.25 83.5L161 85L163.75 85.75L166 86H168.5L172.25 85.25L175.75 83.5L178.75 80.75L181 77.25V76.5L178.75 76.75H175.25L172.25 76L169.5 74.5L167 72.25L165.25 69.75L164 66.25L163.75 64.75V62.75L164.75 58.25L166.75 54L168.25 51.75L169.5 52.25L173 55.25L174 56.25L173.5 57.25L172 59.5L171.25 61.75V65L172.5 67.5L174.75 69L177.25 69.75L179.75 69.25L181.75 67.5L182.75 65.5L183 64.5V61.25L182 58L179.75 54.5L177 51.75L173.75 49.5L170 47.5L164 45.5L159 44.5L155.75 44.25Z" fill="#E3A12A"/>
<path d="M167 117.75H170.5L173.5 118.5L176 120L177.25 121.25L179 123.25L180.5 126.25L181.25 129L181.5 130.5V134.5L180.25 140L178.75 144L176 150L172.75 156.25L169.75 161.25L166.75 165.75L166.25 167L166.5 167.75L167.5 168.25L169.75 169.75L171.75 170.5H176L180.5 169.5L187 167.5L188.5 167L188 165.5L186.75 162L186.25 159.25V153.25L187.25 149L188.5 146L190.5 143L193 140L196.5 137.25L200.5 135.25L202.75 134.5L205.75 134H211.25L215.25 134.75L218.25 136L221 137.5L223.75 139.75L226 142L228.5 145.75L230 149.5L230.75 153V159.5L230.5 160.75L228.5 161H198L196.25 160.75L197.75 163.5L199.25 165.25V165.75L200.25 166.25L202.25 167.75L205.5 169L207.5 169.25H210L213.25 168.5L216 167L218.5 164.75H229L228.75 166L226.25 170L223.5 173L221.5 174.75L218 176.75L214.5 178L212 178.5L207.75 178.75L203.75 178.25L199.75 177L196 175L194.75 174.25L188.75 176.75L182.5 178.75L178.75 179.5L176.5 179.75H172.5L168.25 179.25L164.25 177.75L161.75 176L160 175L159.5 176.25L158.5 177.75H147L147.5 176.75L150.25 172.75L153.25 168.5L154.5 166.75L154.25 164.75L152.75 159L152.25 155.25L152 152V141.25L152.75 135.25L154 130L155.5 126.25L157.75 123L160 120.75L163.25 118.75L165.5 118L167 117.75ZM168.5 127L166.25 127.75L165.75 128V128.5H165.25L163.75 131L162.5 134.5L161.5 139.75L161.25 143.25V150.5L161.5 155L162 155.5L163 154.25L165.5 150L168.5 144.25L170.5 139.5L171.75 135.5L172 134.25V130.25L170.75 127.75L169 127H168.5ZM206 143.25L202.75 144.25L200.25 146L198.25 148L196.25 151.25L197 151.75H220.75L220.25 150.25L218.5 147.5L216.75 145.75L213.75 144L211 143.25H206Z" fill="black"/>
<path d="M0.25 119.25H39L42 119.75L44.5 120.75L46.75 122.25L49.25 124.5L51 126.75L52.75 130.25L53.5 133.25V138L52.25 142.25L50.75 145L50.25 145.75H49.75V146.75L50.75 147.25L53 149.75L55 153.25L56 156.25L56.5 159.25V161.25L55.75 165.5L53.75 169.5L51.5 172.5L49.75 174.25L46.5 176.25L42.75 177.5L41.25 177.75H0V119.5L0.25 119.25ZM9.25 128.75V168.5H40L42.5 167.75L44.5 166.25L46 164.5L47 161.5V158.75L46 156.25L44.5 154.25L43.25 153L42 153.5L39 155.75L35.25 157.75L31 159.25L28.5 159.75H22.75L19.5 158.75L17 157.25L15.25 155.75L13 152.25L12 149.25L11.75 148V145L12.75 141.75L14.5 138.75L16.5 136.75L19.25 135L21.5 134L23.75 133.5H28.75L32.5 134.25L35.5 135.5L39 137.75L41.5 139.75L42.5 140.25L43.75 138L44 137.25V134L43.25 132L41.5 130L39.5 129L38.75 128.75H9.25ZM25 142.5L22.75 143.5L21.25 145.25L21 145.75V147.5L22 149.25L23.5 150.5L24.25 150.75H27.25L30.75 149.75L34.5 147.75L35.25 147.25L35 146.25L32.25 144.25L29.75 143L27.75 142.5H25Z" fill="black"/>
<path d="M254.75 134H260.5L264.5 134.75L268.5 136.5L271.75 138.75L274 140.75L276.75 144.25L278.75 148.25L279.75 151.75L280 153.5V158.75L279.75 160.5L278.25 161H245.5L246.75 163.25L248.75 165.75L251 167.5L253.75 168.75L256.75 169.25H259.25L262.25 168.5L265.25 167L267 165.5L267.75 164.75H278.25L277.75 166.25L275.25 170.25L272.25 173.5L269.5 175.5L266 177.25L261.25 178.5L256.75 178.75L252.75 178.25L248.25 176.75L244.75 174.75L241.5 171.75L239.5 169.5L237.5 166.25L236 162.25L235.5 160L235.25 155.25L235.75 151.25L237 147.5L239 143.75L242 140.25L244.5 138L248.25 135.75L251.75 134.5L254.75 134ZM255 143.25L252.5 144L250 145.5L247.75 147.5L245.5 151V151.5L247 151.75H269.75L269.5 150.5L267.75 147.75L265.5 145.5L263.5 144.25L260.25 143.25H255Z" fill="black"/>
<path d="M115.25 45L121.75 48.25L121.5 49.5L120 51.75L117.5 57L116.25 61L115.75 63.5L115.5 66V70L116.25 74.75L117.75 79.75L119.75 84.25L122 88.25L125.25 93L128.75 97.25L130.5 99.25L134.5 103.5L135.75 104.75L135.25 105.75L133 108L131.25 110L130.5 110.25L124 103.75L121.75 101L119.25 98L115.75 93L112.5 87.25L110.5 82.5L109 77.75L108.25 74L108 71.5V66L108.5 62.5L108.75 61.5L107.5 62.75L105 66.25L102.5 70.75L100.75 76L100.5 77.75V82.25L101.25 85.75L102.25 88.25V89.75L100.25 93.75L97.5 99.75L99.75 99.5L109.5 97.75L110.5 98L113 101.5L115 104L114.25 104.5L89 108.75L86.75 109L87 107.5L93.5 89L93.25 86.5L92.75 84.75L92.5 82.5V79.25L93.25 74.25L95 69L97.5 63.75L101 58.5L103 56L106 52.5L106.75 51.75H107.25L107.5 51L109.5 49.25L113.75 46L115.25 45Z" fill="#E3A12A"/>
<path d="M61 136H70L70.25 136.25L70.5 158.5L71.25 161.5L72.75 164L74 165.25V165.75L75 166.25L77.5 167.75L80 168.75L81 169H84.75L88 168L90.75 166.25L92 165.25L93.75 162.75L94.75 160.75L95 159.25L95.25 136H104.5V177.75H95.25V175L91.25 177L87.25 178.25L84.25 178.75H81.75L78 178.25L74.25 177L71 175.25L67.5 172.5L65.25 170L63.5 167.25L62.25 164.75L61.25 161.5L60.75 158.25V136.25L61 136Z" fill="black"/>
<path d="M109 136H142.25L142.5 137V145L141.75 146.25L139.75 148.25L138 150.25L134.5 154L132.25 156.5L126.25 163L122.5 167L121.5 168.25L142.25 168.5L142.5 169V177.5L142.25 177.75H109V168L112 164.75L115.75 160.75L118.75 157.5L120.5 155.5L127.75 147.75L129.5 145.75L129.75 145.25H109V136Z" fill="black"/>
</g>
</g>
<defs>
<clipPath id="clip0_4_2">
<rect width="280" height="180" fill="white"/>
</clipPath>
<clipPath id="clip1_4_2">
<rect width="280" height="180" fill="white"/>
</clipPath>
</defs>
</svg>
