<svg width="256" height="165" viewBox="0 0 256 165" fill="none" xmlns="http://www.w3.org/2000/svg">
<g clip-path="url(#clip0_381_2287)">
<path d="M111.314 44.2295L111.086 45.375L109.714 47.4375L107.429 52.25L106.286 55.917L105.828 58.208L105.6 60.5V64.167L106.286 68.5205L107.657 73.1045L109.485 77.2295L111.543 80.8955L114.515 85.25L117.714 89.1455L119.314 90.9795L122.972 94.875L124.114 96.0205L123.657 96.9375L121.6 99L120 100.833L119.314 101.062L113.371 95.1045L111.314 92.583L109.028 89.833L105.828 85.25L102.857 79.9795L101.028 75.625L99.6572 71.2705L98.9717 67.833L98.7432 65.542V60.5L99.2002 57.292L99.4287 56.375L98.2861 57.5205L96 60.7295L93.7139 64.8545L92.1143 69.667L91.8857 71.2705V75.3955L92.5713 78.6045L93.4854 80.8955V82.2705L91.6572 85.9375L89.1426 91.4375L91.2002 91.208L100.114 89.6045L101.028 89.833L103.314 93.042L105.143 95.333L104.457 95.792L81.3711 99.6875L79.3145 99.917L79.543 98.542L85.4854 81.583L85.2568 79.292L84.7998 77.6875L84.5713 75.625V72.6455L85.2568 68.0625L86.8574 63.25L89.1426 58.4375L92.3428 53.625L94.1719 51.333L96.9141 48.125L97.5996 47.4375H98.0576L98.2861 46.75L100.114 45.1455L104 42.167L105.371 41.25L111.314 44.2295ZM139.2 0.6875L142.4 1.83301L145.6 3.66699L148.343 6.1875L150.172 8.47949L152 12.375L152.686 15.3545L152.914 18.333L152.457 23.1455L151.314 27.042L149.942 30.4795L148.114 33.6875L147.886 34.375L150.857 34.833L156.343 36.4375L159.771 38.042L160.914 38.2705L161.371 37.3545L163.886 35.292L166.4 33.6875L169.143 32.3125L174.857 30.25L176 30.0205L176.686 31.8545L178.058 35.75L177.828 36.667L173.257 38.2705L169.371 40.1045L166.857 41.9375H166.4L167.086 43.083L168 43.7705V44.2295H168.457L170.743 47.208L172.571 50.6455L173.942 54.542L174.4 56.833L174.629 59.125V63.0205L174.172 66.458L173.257 69.8955L172.114 72.6455L170.743 75.3955L168.686 78.1455L166.629 80.4375L164.343 82.2705L161.143 84.1045L157.714 85.25L155.429 85.708H149.942L145.143 84.5625L140.8 82.7295L137.143 80.667L133.485 77.6875L131.429 75.3955L129.371 72.1875L128 69.208L127.086 65.7705L126.629 61.1875L127.086 56.1455L128 52.25L129.6 47.8955L132.114 43.083L133.942 40.333L136 37.583L138.286 35.0625L140.571 32.083L142.4 29.1045L144.229 25.208L145.371 21.083L145.6 19.9375V16.2705L144.914 13.5205L143.543 11.2295L141.942 9.625L138.972 8.02051L135.314 7.10449H130.286L128.457 7.79199L127.086 9.16699L126.629 10.542V12.375L127.543 15.3545L128.914 18.1045L131.429 21.7705L133.942 24.75L136 27.042L137.6 28.6455L137.143 29.792L135.086 32.3125L133.485 34.375L131.886 33L129.828 30.708L127.771 28.1875L124.8 24.5205L122.972 22.2295L120.229 19.25L118.857 17.6455L115.657 15.125L112.457 13.0625L108.8 11.458L104.457 10.3125L100.8 9.85449H96.2285L93.0283 10.542L91.6572 11.458L91.2002 12.6045L92.1143 14.8955L93.7139 16.958L95.7715 19.25L98.2861 21.542L102.629 24.75L106.515 27.2705L109.942 29.333L114.743 32.083L122.743 36.208L127.543 38.5V39.417L125.714 42.3955L123.429 46.5205L121.371 51.1045L120 55.458L119.543 57.9795L119.314 62.5625L119.771 66L120.914 69.8955L122.743 73.5625L125.028 76.7705L127.086 79.0625L128.686 80.8955L131.886 83.6455L134.4 85.708L134.172 86.625L131.429 90.292L130.743 91.4375L129.828 90.9795L127.086 88.917L124.343 86.3955L120.914 82.958L118.4 79.75L116.114 76.083L114.286 72.417L112.914 68.0625L112.229 64.167V58.4375L112.914 54.083L114.286 49.5L116.114 45.375L117.714 42.3955L117.942 41.4795L115.886 40.792L110.857 38.042L105.6 35.0625L100.571 31.8545L96.6855 29.1045L93.4854 26.583L90.5146 23.833L88.2285 21.542L86.1719 18.792L84.5713 15.3545L84.1143 13.5205V11L85.0283 8.47949L86.4004 6.64551L88 5.27051L91.2002 3.66699L93.9424 2.97949L96.2285 2.75H100.114L104.914 3.20801L110.172 4.35449L114.515 5.95801L118.172 7.79199L120 8.9375L120.457 6.875L121.828 4.35449L123.657 2.52051L125.942 1.14551L128.686 0.229492L130.058 0H135.314L139.2 0.6875ZM142.4 41.0205H141.942L139.657 44L137.371 47.667L135.543 51.333L134.172 55.2295L133.485 60.042L133.714 63.708L134.4 66.458L136.229 70.125L138.515 72.875L141.485 75.167L143.771 76.542L147.2 77.917L149.714 78.6045L151.771 78.833H154.058L157.485 78.1455L160.686 76.542L163.429 74.0205L165.485 70.8125V70.125L163.429 70.3545H160.229L157.485 69.667L154.972 68.292L152.686 66.2295L151.086 63.9375L149.942 60.7295L149.714 59.3545V57.5205L150.629 53.3955L152.457 49.5L153.828 47.4375L154.972 47.8955L158.172 50.6455L159.086 51.5625L158.629 52.4795L157.257 54.542L156.571 56.6045V59.583L157.714 61.875L159.771 63.25L162.058 63.9375L164.343 63.4795L166.172 61.875L167.086 60.042L167.314 59.125V56.1455L166.4 53.167L164.343 49.958L161.828 47.4375L158.857 45.375L155.429 43.542L149.942 41.708L145.371 40.792L142.4 40.5625V41.0205Z" fill="#F4B326"/>
<path d="M158.629 108.625L160.914 110L162.058 111.146L163.657 112.979L165.028 115.729L165.714 118.25L165.942 119.625V123.292L164.8 128.333L163.429 132L160.914 137.5L157.942 143.229L155.2 147.812L152.457 151.938L152 153.083L152.229 153.771L153.143 154.229L155.2 155.604L157.028 156.292H160.914L165.028 155.375L170.972 153.542L172.343 153.083L171.886 151.708L170.743 148.5L170.286 145.979V140.479L171.2 136.583L172.343 133.833L174.172 131.083L176.457 128.333L179.657 125.812L183.314 123.979L185.371 123.292L188.114 122.833H193.143L196.8 123.521L199.543 124.667L202.058 126.042L204.571 128.104L206.629 130.167L208.914 133.604L210.286 137.042L210.972 140.25V146.208L210.743 147.354L208.914 147.583H181.028L179.429 147.354L180.8 149.875L182.172 151.479V151.938L183.086 152.396L184.914 153.771L187.886 154.917L189.714 155.146H192L194.972 154.458L197.485 153.083L199.771 151.021H209.371L209.143 152.167L206.857 155.833L204.343 158.583L202.515 160.188L199.314 162.021L196.114 163.167L193.828 163.625L189.942 163.854L186.286 163.396L182.629 162.25L179.2 160.417L178.058 159.729L172.571 162.021L166.857 163.854L163.429 164.542L161.371 164.771H157.714L153.828 164.312L150.172 162.938L147.886 161.333L146.286 160.417L145.828 161.562L144.914 162.938H134.4L134.857 162.021L137.371 158.354L140.114 154.458L141.257 152.854L141.028 151.021L139.657 145.75L139.2 142.312L138.972 139.333V129.479L139.657 123.979L140.8 119.167L142.172 115.729L144.229 112.75L146.286 110.688L149.257 108.854L151.314 108.167L152.686 107.938H155.886L158.629 108.625ZM64.2285 124.896L64.457 145.292L65.1426 148.042L66.5146 150.333L67.6572 151.479V151.938L68.5713 152.396L70.8574 153.771L73.1426 154.688L74.0576 154.917H77.4854L80.457 154L82.9717 152.396L84.1143 151.479L85.7139 149.188L86.6289 147.354L86.8574 145.979L87.0859 124.667H95.543V162.938H87.0859V160.417L83.4287 162.25L79.7715 163.396L77.0283 163.854H74.7432L71.3145 163.396L67.8857 162.25L64.9141 160.646L61.7139 158.125L59.6572 155.833L58.0576 153.312L56.9141 151.021L56 148.042L55.543 145.062V124.896L55.7715 124.667H64L64.2285 124.896ZM241.828 123.521L245.485 125.125L248.457 127.188L250.515 129.021L253.028 132.229L254.857 135.896L255.771 139.104L256 140.708V145.521L255.771 147.125L254.4 147.583H224.457L225.6 149.646L227.429 151.938L229.485 153.542L232 154.688L234.743 155.146H237.028L239.771 154.458L242.515 153.083L244.114 151.708L244.8 151.021H254.4L253.942 152.396L251.657 156.062L248.914 159.042L246.4 160.875L243.2 162.479L238.857 163.625L234.743 163.854L231.086 163.396L226.972 162.021L223.771 160.188L220.8 157.438L218.972 155.375L217.143 152.396L215.771 148.729L215.314 146.667L215.086 142.312L215.543 138.646L216.686 135.208L218.515 131.771L221.257 128.562L223.543 126.5L226.972 124.438L230.172 123.292L232.914 122.833H238.172L241.828 123.521ZM38.4004 109.771L40.6855 110.688L42.7432 112.062L45.0283 114.125L46.6289 116.188L48.2285 119.396L48.9141 122.146V126.5L47.7715 130.396L46.4004 132.917L45.9424 133.604H45.4854V134.521L46.4004 134.979L48.457 137.271L50.2861 140.479L51.2002 143.229L51.6572 145.979V147.812L50.9717 151.708L49.1426 155.375L47.0859 158.125L45.4854 159.729L42.5146 161.562L39.0859 162.708L37.7139 162.938H0V109.542L0.228516 109.312H35.6572L38.4004 109.771ZM130.286 125.583V132.917L129.6 134.062L127.771 135.896L126.172 137.729L122.972 141.167L120.914 143.458L115.429 149.417L112 153.083L111.086 154.229L130.058 154.458L130.286 154.917V162.708L130.058 162.938H99.6572V154L102.4 151.021L105.828 147.354L108.571 144.375L110.172 142.542L116.8 135.438L118.4 133.604L118.629 133.146H99.6572V124.667H130.058L130.286 125.583ZM8.45703 154.458H36.5713L38.8574 153.771L40.6855 152.396L42.0576 150.792L42.9717 148.042V145.521L42.0576 143.229L40.6855 141.396L39.543 140.25L38.4004 140.708L35.6572 142.771L32.2285 144.604L28.3428 145.979L26.0576 146.438H20.7998L17.8281 145.521L15.543 144.146L13.9424 142.771L11.8857 139.562L10.9717 136.812L10.7432 135.667V132.917L11.6572 129.938L13.2568 127.188L15.0859 125.354L17.5996 123.75L19.6572 122.833L21.7139 122.375H26.2861L29.7139 123.062L32.457 124.208L35.6572 126.271L37.9424 128.104L38.8574 128.562L40 126.5L40.2285 125.812V122.833L39.543 121L37.9424 119.167L36.1143 118.25L35.4287 118.021H8.45703V154.458ZM152 117.104L151.543 117.333V117.792H151.086L149.714 120.083L148.571 123.292L147.657 128.104L147.429 131.312V137.958L147.657 142.083L148.114 142.542L149.028 141.396L151.314 137.5L154.058 132.229L155.886 127.875L157.028 124.208L157.257 123.062V119.396L156.114 117.104L154.515 116.417H154.058L152 117.104ZM185.371 132.229L183.086 133.833L181.257 135.667L179.429 138.646L180.114 139.104H201.828L201.371 137.729L199.771 135.208L198.172 133.604L195.429 132L192.914 131.312H188.343L185.371 132.229ZM230.857 132L228.571 133.375L226.515 135.208L224.457 138.417V138.875L225.828 139.104H246.629L246.4 137.958L244.8 135.438L242.743 133.375L240.914 132.229L237.942 131.312H233.143L230.857 132ZM20.7998 131.542L19.4287 133.146L19.2002 133.604V135.208L20.1143 136.812L21.4854 137.958L22.1719 138.188H24.9141L28.1143 137.271L31.543 135.438L32.2285 134.979L32 134.062L29.4854 132.229L27.2002 131.083L25.3711 130.625H22.8574L20.7998 131.542Z" fill="#111827"/>
</g>
<defs>
<clipPath id="clip0_381_2287">
<rect width="256" height="165" fill="white"/>
</clipPath>
</defs>
</svg>
